<svg id="Calque_1" data-name="Calque 1" xmlns="http://www.w3.org/2000/svg" viewBox="0 -5 137.17 200.46"><defs><style>.cls-1{fill:#bc412b;}.cls-2{opacity:0.15;}.cls-3,.cls-4,.cls-6{fill:#16375b;}.cls-3{stroke:#000;stroke-width:1.01px;}.cls-3,.cls-4{stroke-miterlimit:10;}.cls-4{stroke:#16375b;}.cls-5{fill:#547da3;}</style></defs><title>logo_OSNFT_blue</title><circle class="cls-1" cx="68.45" cy="34.02" r="34.02"/><g class="cls-2"><path d="M158,370.41A34,34,0,0,1,185.56,337a34,34,0,1,0,0,66.78A34,34,0,0,1,158,370.41Z" transform="translate(-110.6 -336.39)"/></g><path class="cls-3" d="M179.06,398c-17,0-33.34-12.29-36.15-28.44a34.94,34.94,0,0,0-.51,5.92c0,19,17.68,34.36,36.66,34.36s36.65-15.39,36.65-34.36a34.94,34.94,0,0,0-.51-5.92C212.39,385.7,196,398,179.06,398Z" transform="translate(-110.6 -336.39)"/><polygon class="cls-4" points="4.75 72.14 37.66 72.14 20.86 16.7 0.55 62.9 4.75 72.14"/><polygon class="cls-4" points="132.16 72.14 99.25 72.14 116.05 16.7 136.36 62.9 132.16 72.14"/><polygon class="cls-5" points="81.75 190.58 55.15 190.58 4.75 72.14 132.15 72.14 81.75 190.58"/><polygon class="cls-4" points="91.17 99.65 99.24 72.11 37.81 72.12 45.88 99.65 31.91 99.65 49.7 113.3 49.84 113.18 67.3 178.13 56.15 190.58 80.34 190.58 69.6 178.13 87.2 113.17 87.36 113.3 104.72 99.65 91.17 99.65"/></svg>