<svg id="Layer_1" data-name="Layer 1" xmlns="http://www.w3.org/2000/svg" viewBox="0 0 135.8 190.61"><circle cx="67.8" cy="34.01" r="34" style="fill:#969696"/><g style="opacity:0.15000000596046448"><path d="M46.8,34A34.06,34.06,0,0,1,74.4.6,34,34,0,1,0,61.6,67.4a34.43,34.43,0,0,0,12.8,0A34.06,34.06,0,0,1,46.8,34Z" transform="translate(0 0.01)" style="fill:#333"/></g><path d="M67.9,61.6c-17,0-33.3-12.3-36.1-28.4a39.15,39.15,0,0,0-.5,5.9c0,19,17.7,34.4,36.7,34.4s36.7-15.4,36.7-34.4a38.08,38.08,0,0,0-.5-5.9C101.2,49.3,84.8,61.6,67.9,61.6Z" transform="translate(0 0.01)" style="fill:#959595"/><polygon points="4.2 72.11 37.1 72.11 20.3 16.71 0 62.91 4.2 72.11" style="fill:#959595"/><polygon points="131.6 72.11 98.6 72.11 115.5 16.71 135.8 62.91 131.6 72.11" style="fill:#959595"/><polygon points="81.2 190.61 54.6 190.61 4.2 72.11 131.5 72.11 81.2 190.61" style="fill:#dfdfdf"/><polygon points="90.6 99.71 98.6 72.11 37.2 72.11 45.3 99.71 31.3 99.71 49.1 113.31 49.2 113.21 66.7 178.11 55.6 190.61 79.7 190.61 69 178.11 86.6 113.21 86.8 113.31 104.1 99.71 90.6 99.71" style="fill:#959595"/></svg>